# Tiled2Unity generated file. Do not modify by hand.
# Wavefront file for 'LavaWalls_mesh_0001.obj'

# Vertices (Count = 720)
v 0 -32 0
v -32 -32 0
v -32 0 0
v 0 0 0
v -32 -32 0
v -64 -32 0
v -64 0 0
v -32 0 0
v -64 -32 0
v -96 -32 0
v -96 0 0
v -64 0 0
v -96 -32 0
v -128 -32 0
v -128 0 0
v -96 0 0
v -128 -32 0
v -160 -32 0
v -160 0 0
v -128 0 0
v -160 -32 0
v -192 -32 0
v -192 0 0
v -160 0 0
v -192 -32 0
v -224 -32 0
v -224 0 0
v -192 0 0
v -224 -32 0
v -256 -32 0
v -256 0 0
v -224 0 0
v -256 -32 0
v -288 -32 0
v -288 0 0
v -256 0 0
v -288 -32 0
v -320 -32 0
v -320 0 0
v -288 0 0
v -320 -32 0
v -352 -32 0
v -352 0 0
v -320 0 0
v -352 -32 0
v -384 -32 0
v -384 0 0
v -352 0 0
v -384 -32 0
v -416 -32 0
v -416 0 0
v -384 0 0
v -416 -32 0
v -448 -32 0
v -448 0 0
v -416 0 0
v -448 -32 0
v -480 -32 0
v -480 0 0
v -448 0 0
v -480 -32 0
v -512 -32 0
v -512 0 0
v -480 0 0
v -512 -32 0
v -544 -32 0
v -544 0 0
v -512 0 0
v -544 -32 0
v -576 -32 0
v -576 0 0
v -544 0 0
v 0 -64 0
v -32 -64 0
v -32 -32 0
v 0 -32 0
v -32 -64 0
v -64 -64 0
v -64 -32 0
v -32 -32 0
v -64 -64 0
v -96 -64 0
v -96 -32 0
v -64 -32 0
v -96 -64 0
v -128 -64 0
v -128 -32 0
v -96 -32 0
v -128 -64 0
v -160 -64 0
v -160 -32 0
v -128 -32 0
v -160 -64 0
v -192 -64 0
v -192 -32 0
v -160 -32 0
v -192 -64 0
v -224 -64 0
v -224 -32 0
v -192 -32 0
v -224 -64 0
v -256 -64 0
v -256 -32 0
v -224 -32 0
v -256 -64 0
v -288 -64 0
v -288 -32 0
v -256 -32 0
v -288 -64 0
v -320 -64 0
v -320 -32 0
v -288 -32 0
v -320 -64 0
v -352 -64 0
v -352 -32 0
v -320 -32 0
v -352 -64 0
v -384 -64 0
v -384 -32 0
v -352 -32 0
v -384 -64 0
v -416 -64 0
v -416 -32 0
v -384 -32 0
v -416 -64 0
v -448 -64 0
v -448 -32 0
v -416 -32 0
v -448 -64 0
v -480 -64 0
v -480 -32 0
v -448 -32 0
v -480 -64 0
v -512 -64 0
v -512 -32 0
v -480 -32 0
v -512 -64 0
v -544 -64 0
v -544 -32 0
v -512 -32 0
v -544 -64 0
v -576 -64 0
v -576 -32 0
v -544 -32 0
v 0 -96 0
v -32 -96 0
v -32 -64 0
v 0 -64 0
v -32 -96 0
v -64 -96 0
v -64 -64 0
v -32 -64 0
v -64 -96 0
v -96 -96 0
v -96 -64 0
v -64 -64 0
v -96 -96 0
v -128 -96 0
v -128 -64 0
v -96 -64 0
v -128 -96 0
v -160 -96 0
v -160 -64 0
v -128 -64 0
v -160 -96 0
v -192 -96 0
v -192 -64 0
v -160 -64 0
v -192 -96 0
v -224 -96 0
v -224 -64 0
v -192 -64 0
v -224 -96 0
v -256 -96 0
v -256 -64 0
v -224 -64 0
v -256 -96 0
v -288 -96 0
v -288 -64 0
v -256 -64 0
v -288 -96 0
v -320 -96 0
v -320 -64 0
v -288 -64 0
v -320 -96 0
v -352 -96 0
v -352 -64 0
v -320 -64 0
v -352 -96 0
v -384 -96 0
v -384 -64 0
v -352 -64 0
v -384 -96 0
v -416 -96 0
v -416 -64 0
v -384 -64 0
v -416 -96 0
v -448 -96 0
v -448 -64 0
v -416 -64 0
v -448 -96 0
v -480 -96 0
v -480 -64 0
v -448 -64 0
v -480 -96 0
v -512 -96 0
v -512 -64 0
v -480 -64 0
v -512 -96 0
v -544 -96 0
v -544 -64 0
v -512 -64 0
v -544 -96 0
v -576 -96 0
v -576 -64 0
v -544 -64 0
v 0 -128 0
v -32 -128 0
v -32 -96 0
v 0 -96 0
v -32 -128 0
v -64 -128 0
v -64 -96 0
v -32 -96 0
v -64 -128 0
v -96 -128 0
v -96 -96 0
v -64 -96 0
v -96 -128 0
v -128 -128 0
v -128 -96 0
v -96 -96 0
v -128 -128 0
v -160 -128 0
v -160 -96 0
v -128 -96 0
v -160 -128 0
v -192 -128 0
v -192 -96 0
v -160 -96 0
v -192 -128 0
v -224 -128 0
v -224 -96 0
v -192 -96 0
v -224 -128 0
v -256 -128 0
v -256 -96 0
v -224 -96 0
v -256 -128 0
v -288 -128 0
v -288 -96 0
v -256 -96 0
v -288 -128 0
v -320 -128 0
v -320 -96 0
v -288 -96 0
v -320 -128 0
v -352 -128 0
v -352 -96 0
v -320 -96 0
v -352 -128 0
v -384 -128 0
v -384 -96 0
v -352 -96 0
v -384 -128 0
v -416 -128 0
v -416 -96 0
v -384 -96 0
v -416 -128 0
v -448 -128 0
v -448 -96 0
v -416 -96 0
v -448 -128 0
v -480 -128 0
v -480 -96 0
v -448 -96 0
v -480 -128 0
v -512 -128 0
v -512 -96 0
v -480 -96 0
v -512 -128 0
v -544 -128 0
v -544 -96 0
v -512 -96 0
v -544 -128 0
v -576 -128 0
v -576 -96 0
v -544 -96 0
v 0 -160 0
v -32 -160 0
v -32 -128 0
v 0 -128 0
v -32 -160 0
v -64 -160 0
v -64 -128 0
v -32 -128 0
v -64 -160 0
v -96 -160 0
v -96 -128 0
v -64 -128 0
v -96 -160 0
v -128 -160 0
v -128 -128 0
v -96 -128 0
v -128 -160 0
v -160 -160 0
v -160 -128 0
v -128 -128 0
v -160 -160 0
v -192 -160 0
v -192 -128 0
v -160 -128 0
v -192 -160 0
v -224 -160 0
v -224 -128 0
v -192 -128 0
v -224 -160 0
v -256 -160 0
v -256 -128 0
v -224 -128 0
v -256 -160 0
v -288 -160 0
v -288 -128 0
v -256 -128 0
v -288 -160 0
v -320 -160 0
v -320 -128 0
v -288 -128 0
v -320 -160 0
v -352 -160 0
v -352 -128 0
v -320 -128 0
v -352 -160 0
v -384 -160 0
v -384 -128 0
v -352 -128 0
v -384 -160 0
v -416 -160 0
v -416 -128 0
v -384 -128 0
v -416 -160 0
v -448 -160 0
v -448 -128 0
v -416 -128 0
v -448 -160 0
v -480 -160 0
v -480 -128 0
v -448 -128 0
v -480 -160 0
v -512 -160 0
v -512 -128 0
v -480 -128 0
v -512 -160 0
v -544 -160 0
v -544 -128 0
v -512 -128 0
v -544 -160 0
v -576 -160 0
v -576 -128 0
v -544 -128 0
v 0 -192 0
v -32 -192 0
v -32 -160 0
v 0 -160 0
v -32 -192 0
v -64 -192 0
v -64 -160 0
v -32 -160 0
v -64 -192 0
v -96 -192 0
v -96 -160 0
v -64 -160 0
v -96 -192 0
v -128 -192 0
v -128 -160 0
v -96 -160 0
v -128 -192 0
v -160 -192 0
v -160 -160 0
v -128 -160 0
v -160 -192 0
v -192 -192 0
v -192 -160 0
v -160 -160 0
v -192 -192 0
v -224 -192 0
v -224 -160 0
v -192 -160 0
v -224 -192 0
v -256 -192 0
v -256 -160 0
v -224 -160 0
v -256 -192 0
v -288 -192 0
v -288 -160 0
v -256 -160 0
v -288 -192 0
v -320 -192 0
v -320 -160 0
v -288 -160 0
v -320 -192 0
v -352 -192 0
v -352 -160 0
v -320 -160 0
v -352 -192 0
v -384 -192 0
v -384 -160 0
v -352 -160 0
v -384 -192 0
v -416 -192 0
v -416 -160 0
v -384 -160 0
v -416 -192 0
v -448 -192 0
v -448 -160 0
v -416 -160 0
v -448 -192 0
v -480 -192 0
v -480 -160 0
v -448 -160 0
v -480 -192 0
v -512 -192 0
v -512 -160 0
v -480 -160 0
v -512 -192 0
v -544 -192 0
v -544 -160 0
v -512 -160 0
v -544 -192 0
v -576 -192 0
v -576 -160 0
v -544 -160 0
v 0 -224 0
v -32 -224 0
v -32 -192 0
v 0 -192 0
v -32 -224 0
v -64 -224 0
v -64 -192 0
v -32 -192 0
v -64 -224 0
v -96 -224 0
v -96 -192 0
v -64 -192 0
v -96 -224 0
v -128 -224 0
v -128 -192 0
v -96 -192 0
v -128 -224 0
v -160 -224 0
v -160 -192 0
v -128 -192 0
v -160 -224 0
v -192 -224 0
v -192 -192 0
v -160 -192 0
v -192 -224 0
v -224 -224 0
v -224 -192 0
v -192 -192 0
v -224 -224 0
v -256 -224 0
v -256 -192 0
v -224 -192 0
v -256 -224 0
v -288 -224 0
v -288 -192 0
v -256 -192 0
v -288 -224 0
v -320 -224 0
v -320 -192 0
v -288 -192 0
v -320 -224 0
v -352 -224 0
v -352 -192 0
v -320 -192 0
v -352 -224 0
v -384 -224 0
v -384 -192 0
v -352 -192 0
v -384 -224 0
v -416 -224 0
v -416 -192 0
v -384 -192 0
v -416 -224 0
v -448 -224 0
v -448 -192 0
v -416 -192 0
v -448 -224 0
v -480 -224 0
v -480 -192 0
v -448 -192 0
v -480 -224 0
v -512 -224 0
v -512 -192 0
v -480 -192 0
v -512 -224 0
v -544 -224 0
v -544 -192 0
v -512 -192 0
v -544 -224 0
v -576 -224 0
v -576 -192 0
v -544 -192 0
v 0 -256 0
v -32 -256 0
v -32 -224 0
v 0 -224 0
v -32 -256 0
v -64 -256 0
v -64 -224 0
v -32 -224 0
v -64 -256 0
v -96 -256 0
v -96 -224 0
v -64 -224 0
v -96 -256 0
v -128 -256 0
v -128 -224 0
v -96 -224 0
v -128 -256 0
v -160 -256 0
v -160 -224 0
v -128 -224 0
v -160 -256 0
v -192 -256 0
v -192 -224 0
v -160 -224 0
v -192 -256 0
v -224 -256 0
v -224 -224 0
v -192 -224 0
v -224 -256 0
v -256 -256 0
v -256 -224 0
v -224 -224 0
v -256 -256 0
v -288 -256 0
v -288 -224 0
v -256 -224 0
v -288 -256 0
v -320 -256 0
v -320 -224 0
v -288 -224 0
v -320 -256 0
v -352 -256 0
v -352 -224 0
v -320 -224 0
v -352 -256 0
v -384 -256 0
v -384 -224 0
v -352 -224 0
v -384 -256 0
v -416 -256 0
v -416 -224 0
v -384 -224 0
v -416 -256 0
v -448 -256 0
v -448 -224 0
v -416 -224 0
v -448 -256 0
v -480 -256 0
v -480 -224 0
v -448 -224 0
v -480 -256 0
v -512 -256 0
v -512 -224 0
v -480 -224 0
v -512 -256 0
v -544 -256 0
v -544 -224 0
v -512 -224 0
v -544 -256 0
v -576 -256 0
v -576 -224 0
v -544 -224 0
v 0 -288 0
v -32 -288 0
v -32 -256 0
v 0 -256 0
v -32 -288 0
v -64 -288 0
v -64 -256 0
v -32 -256 0
v -64 -288 0
v -96 -288 0
v -96 -256 0
v -64 -256 0
v -96 -288 0
v -128 -288 0
v -128 -256 0
v -96 -256 0
v -128 -288 0
v -160 -288 0
v -160 -256 0
v -128 -256 0
v -160 -288 0
v -192 -288 0
v -192 -256 0
v -160 -256 0
v -192 -288 0
v -224 -288 0
v -224 -256 0
v -192 -256 0
v -224 -288 0
v -256 -288 0
v -256 -256 0
v -224 -256 0
v -256 -288 0
v -288 -288 0
v -288 -256 0
v -256 -256 0
v -288 -288 0
v -320 -288 0
v -320 -256 0
v -288 -256 0
v -320 -288 0
v -352 -288 0
v -352 -256 0
v -320 -256 0
v -352 -288 0
v -384 -288 0
v -384 -256 0
v -352 -256 0
v -384 -288 0
v -416 -288 0
v -416 -256 0
v -384 -256 0
v -416 -288 0
v -448 -288 0
v -448 -256 0
v -416 -256 0
v -448 -288 0
v -480 -288 0
v -480 -256 0
v -448 -256 0
v -480 -288 0
v -512 -288 0
v -512 -256 0
v -480 -256 0
v -512 -288 0
v -544 -288 0
v -544 -256 0
v -512 -256 0
v -544 -288 0
v -576 -288 0
v -576 -256 0
v -544 -256 0
v 0 -320 0
v -32 -320 0
v -32 -288 0
v 0 -288 0
v -32 -320 0
v -64 -320 0
v -64 -288 0
v -32 -288 0
v -64 -320 0
v -96 -320 0
v -96 -288 0
v -64 -288 0
v -96 -320 0
v -128 -320 0
v -128 -288 0
v -96 -288 0
v -128 -320 0
v -160 -320 0
v -160 -288 0
v -128 -288 0
v -160 -320 0
v -192 -320 0
v -192 -288 0
v -160 -288 0
v -192 -320 0
v -224 -320 0
v -224 -288 0
v -192 -288 0
v -224 -320 0
v -256 -320 0
v -256 -288 0
v -224 -288 0
v -256 -320 0
v -288 -320 0
v -288 -288 0
v -256 -288 0
v -288 -320 0
v -320 -320 0
v -320 -288 0
v -288 -288 0
v -320 -320 0
v -352 -320 0
v -352 -288 0
v -320 -288 0
v -352 -320 0
v -384 -320 0
v -384 -288 0
v -352 -288 0
v -384 -320 0
v -416 -320 0
v -416 -288 0
v -384 -288 0
v -416 -320 0
v -448 -320 0
v -448 -288 0
v -416 -288 0
v -448 -320 0
v -480 -320 0
v -480 -288 0
v -448 -288 0
v -480 -320 0
v -512 -320 0
v -512 -288 0
v -480 -288 0
v -512 -320 0
v -544 -320 0
v -544 -288 0
v -512 -288 0
v -544 -320 0
v -576 -320 0
v -576 -288 0
v -544 -288 0

# Texture cooridinates (Count = 49)
vt 0.125 0.75
vt 0.25 0.75
vt 0.25 0.875
vt 0.125 0.875
vt 0.375 0.75
vt 0.375 0.875
vt 0.5 0.75
vt 0.5 0.875
vt 0.625 0.75
vt 0.625 0.875
vt 0.75 0.75
vt 0.75 0.875
vt 0.875 0.75
vt 0.875 0.875
vt 0.125 0.625
vt 0.25 0.625
vt 0.375 0.625
vt 0.5 0.625
vt 0.625 0.625
vt 0.75 0.625
vt 0.875 0.625
vt 0.125 0.5
vt 0.25 0.5
vt 0.375 0.5
vt 0.5 0.5
vt 0.625 0.5
vt 0.75 0.5
vt 0.875 0.5
vt 0.125 0.375
vt 0.25 0.375
vt 0.375 0.375
vt 0.5 0.375
vt 0.625 0.375
vt 0.75 0.375
vt 0.875 0.375
vt 0.125 0.25
vt 0.25 0.25
vt 0.375 0.25
vt 0.5 0.25
vt 0.625 0.25
vt 0.75 0.25
vt 0.875 0.25
vt 0.125 0.125
vt 0.25 0.125
vt 0.375 0.125
vt 0.5 0.125
vt 0.625 0.125
vt 0.75 0.125
vt 0.875 0.125

# Normal
vn 0 0 -1

# Mesh description
g LavaWalls_mesh_0001

# Faces
f 1/1/1 2/2/1 3/3/1 4/4/1
f 5/2/1 6/5/1 7/6/1 8/3/1
f 9/5/1 10/7/1 11/8/1 12/6/1
f 13/7/1 14/9/1 15/10/1 16/8/1
f 17/9/1 18/11/1 19/12/1 20/10/1
f 21/2/1 22/5/1 23/6/1 24/3/1
f 25/5/1 26/7/1 27/8/1 28/6/1
f 29/7/1 30/9/1 31/10/1 32/8/1
f 33/9/1 34/11/1 35/12/1 36/10/1
f 37/2/1 38/5/1 39/6/1 40/3/1
f 41/5/1 42/7/1 43/8/1 44/6/1
f 45/7/1 46/9/1 47/10/1 48/8/1
f 49/9/1 50/11/1 51/12/1 52/10/1
f 53/2/1 54/5/1 55/6/1 56/3/1
f 57/5/1 58/7/1 59/8/1 60/6/1
f 61/7/1 62/9/1 63/10/1 64/8/1
f 65/9/1 66/11/1 67/12/1 68/10/1
f 69/11/1 70/13/1 71/14/1 72/12/1
f 73/15/1 74/16/1 75/2/1 76/1/1
f 77/16/1 78/17/1 79/5/1 80/2/1
f 81/17/1 82/18/1 83/7/1 84/5/1
f 85/18/1 86/19/1 87/9/1 88/7/1
f 89/16/1 90/17/1 91/5/1 92/2/1
f 93/16/1 94/17/1 95/5/1 96/2/1
f 97/16/1 98/17/1 99/5/1 100/2/1
f 101/16/1 102/17/1 103/5/1 104/2/1
f 105/16/1 106/17/1 107/5/1 108/2/1
f 109/16/1 110/17/1 111/5/1 112/2/1
f 113/16/1 114/17/1 115/5/1 116/2/1
f 117/16/1 118/17/1 119/5/1 120/2/1
f 121/17/1 122/18/1 123/7/1 124/5/1
f 125/18/1 126/19/1 127/9/1 128/7/1
f 129/19/1 130/20/1 131/11/1 132/9/1
f 133/19/1 134/20/1 135/11/1 136/9/1
f 137/19/1 138/20/1 139/11/1 140/9/1
f 141/20/1 142/21/1 143/13/1 144/11/1
f 145/22/1 146/23/1 147/16/1 148/15/1
f 149/23/1 150/24/1 151/17/1 152/16/1
f 153/24/1 154/25/1 155/18/1 156/17/1
f 157/25/1 158/26/1 159/19/1 160/18/1
f 161/23/1 162/24/1 163/17/1 164/16/1
f 165/23/1 166/24/1 167/17/1 168/16/1
f 169/23/1 170/24/1 171/17/1 172/16/1
f 173/23/1 174/24/1 175/17/1 176/16/1
f 177/23/1 178/24/1 179/17/1 180/16/1
f 181/23/1 182/24/1 183/17/1 184/16/1
f 185/23/1 186/24/1 187/17/1 188/16/1
f 189/16/1 190/17/1 191/5/1 192/2/1
f 193/17/1 194/18/1 195/7/1 196/5/1
f 197/18/1 198/19/1 199/9/1 200/7/1
f 201/19/1 202/20/1 203/11/1 204/9/1
f 205/19/1 206/20/1 207/11/1 208/9/1
f 209/19/1 210/20/1 211/11/1 212/9/1
f 213/27/1 214/28/1 215/21/1 216/20/1
f 217/29/1 218/30/1 219/23/1 220/22/1
f 221/30/1 222/31/1 223/24/1 224/23/1
f 225/31/1 226/32/1 227/25/1 228/24/1
f 229/32/1 230/33/1 231/26/1 232/25/1
f 233/30/1 234/31/1 235/24/1 236/23/1
f 237/30/1 238/31/1 239/24/1 240/23/1
f 241/30/1 242/31/1 243/24/1 244/23/1
f 245/30/1 246/31/1 247/24/1 248/23/1
f 249/30/1 250/31/1 251/24/1 252/23/1
f 253/30/1 254/31/1 255/24/1 256/23/1
f 257/30/1 258/31/1 259/24/1 260/23/1
f 261/16/1 262/17/1 263/5/1 264/2/1
f 265/17/1 266/18/1 267/7/1 268/5/1
f 269/18/1 270/19/1 271/9/1 272/7/1
f 273/19/1 274/20/1 275/11/1 276/9/1
f 277/19/1 278/20/1 279/11/1 280/9/1
f 281/19/1 282/20/1 283/11/1 284/9/1
f 285/34/1 286/35/1 287/28/1 288/27/1
f 289/36/1 290/37/1 291/30/1 292/29/1
f 293/37/1 294/38/1 295/31/1 296/30/1
f 297/38/1 298/39/1 299/32/1 300/31/1
f 301/39/1 302/40/1 303/33/1 304/32/1
f 305/37/1 306/38/1 307/31/1 308/30/1
f 309/37/1 310/38/1 311/31/1 312/30/1
f 313/37/1 314/38/1 315/31/1 316/30/1
f 317/37/1 318/38/1 319/31/1 320/30/1
f 321/37/1 322/38/1 323/31/1 324/30/1
f 325/37/1 326/38/1 327/31/1 328/30/1
f 329/37/1 330/38/1 331/31/1 332/30/1
f 333/16/1 334/17/1 335/5/1 336/2/1
f 337/17/1 338/18/1 339/7/1 340/5/1
f 341/18/1 342/19/1 343/9/1 344/7/1
f 345/19/1 346/20/1 347/11/1 348/9/1
f 349/19/1 350/20/1 351/11/1 352/9/1
f 353/19/1 354/20/1 355/11/1 356/9/1
f 357/41/1 358/42/1 359/35/1 360/34/1
f 361/15/1 362/16/1 363/2/1 364/1/1
f 365/16/1 366/17/1 367/5/1 368/2/1
f 369/17/1 370/18/1 371/7/1 372/5/1
f 373/18/1 374/19/1 375/9/1 376/7/1
f 377/19/1 378/20/1 379/11/1 380/9/1
f 381/19/1 382/20/1 383/11/1 384/9/1
f 385/19/1 386/20/1 387/11/1 388/9/1
f 389/19/1 390/20/1 391/11/1 392/9/1
f 393/19/1 394/20/1 395/11/1 396/9/1
f 397/19/1 398/20/1 399/11/1 400/9/1
f 401/19/1 402/20/1 403/11/1 404/9/1
f 405/19/1 406/20/1 407/11/1 408/9/1
f 409/19/1 410/20/1 411/11/1 412/9/1
f 413/19/1 414/20/1 415/11/1 416/9/1
f 417/19/1 418/20/1 419/11/1 420/9/1
f 421/19/1 422/20/1 423/11/1 424/9/1
f 425/19/1 426/20/1 427/11/1 428/9/1
f 429/20/1 430/21/1 431/13/1 432/11/1
f 433/22/1 434/23/1 435/16/1 436/15/1
f 437/23/1 438/24/1 439/17/1 440/16/1
f 441/24/1 442/25/1 443/18/1 444/17/1
f 445/25/1 446/26/1 447/19/1 448/18/1
f 449/26/1 450/27/1 451/20/1 452/19/1
f 453/26/1 454/27/1 455/20/1 456/19/1
f 457/26/1 458/27/1 459/20/1 460/19/1
f 461/26/1 462/27/1 463/20/1 464/19/1
f 465/26/1 466/27/1 467/20/1 468/19/1
f 469/26/1 470/27/1 471/20/1 472/19/1
f 473/26/1 474/27/1 475/20/1 476/19/1
f 477/26/1 478/27/1 479/20/1 480/19/1
f 481/26/1 482/27/1 483/20/1 484/19/1
f 485/26/1 486/27/1 487/20/1 488/19/1
f 489/26/1 490/27/1 491/20/1 492/19/1
f 493/19/1 494/20/1 495/11/1 496/9/1
f 497/19/1 498/20/1 499/11/1 500/9/1
f 501/27/1 502/28/1 503/21/1 504/20/1
f 505/29/1 506/30/1 507/23/1 508/22/1
f 509/30/1 510/31/1 511/24/1 512/23/1
f 513/31/1 514/32/1 515/25/1 516/24/1
f 517/32/1 518/33/1 519/26/1 520/25/1
f 521/33/1 522/34/1 523/27/1 524/26/1
f 525/33/1 526/34/1 527/27/1 528/26/1
f 529/33/1 530/34/1 531/27/1 532/26/1
f 533/33/1 534/34/1 535/27/1 536/26/1
f 537/33/1 538/34/1 539/27/1 540/26/1
f 541/33/1 542/34/1 543/27/1 544/26/1
f 545/33/1 546/34/1 547/27/1 548/26/1
f 549/33/1 550/34/1 551/27/1 552/26/1
f 553/33/1 554/34/1 555/27/1 556/26/1
f 557/33/1 558/34/1 559/27/1 560/26/1
f 561/33/1 562/34/1 563/27/1 564/26/1
f 565/19/1 566/20/1 567/11/1 568/9/1
f 569/19/1 570/20/1 571/11/1 572/9/1
f 573/34/1 574/35/1 575/28/1 576/27/1
f 577/36/1 578/37/1 579/30/1 580/29/1
f 581/37/1 582/38/1 583/31/1 584/30/1
f 585/38/1 586/39/1 587/32/1 588/31/1
f 589/39/1 590/40/1 591/33/1 592/32/1
f 593/40/1 594/41/1 595/34/1 596/33/1
f 597/40/1 598/41/1 599/34/1 600/33/1
f 601/40/1 602/41/1 603/34/1 604/33/1
f 605/40/1 606/41/1 607/34/1 608/33/1
f 609/40/1 610/41/1 611/34/1 612/33/1
f 613/40/1 614/41/1 615/34/1 616/33/1
f 617/40/1 618/41/1 619/34/1 620/33/1
f 621/40/1 622/41/1 623/34/1 624/33/1
f 625/40/1 626/41/1 627/34/1 628/33/1
f 629/40/1 630/41/1 631/34/1 632/33/1
f 633/40/1 634/41/1 635/34/1 636/33/1
f 637/19/1 638/20/1 639/11/1 640/9/1
f 641/19/1 642/20/1 643/11/1 644/9/1
f 645/41/1 646/42/1 647/35/1 648/34/1
f 649/43/1 650/44/1 651/37/1 652/36/1
f 653/44/1 654/45/1 655/38/1 656/37/1
f 657/45/1 658/46/1 659/39/1 660/38/1
f 661/46/1 662/47/1 663/40/1 664/39/1
f 665/47/1 666/48/1 667/41/1 668/40/1
f 669/44/1 670/45/1 671/38/1 672/37/1
f 673/45/1 674/46/1 675/39/1 676/38/1
f 677/46/1 678/47/1 679/40/1 680/39/1
f 681/47/1 682/48/1 683/41/1 684/40/1
f 685/44/1 686/45/1 687/38/1 688/37/1
f 689/45/1 690/46/1 691/39/1 692/38/1
f 693/46/1 694/47/1 695/40/1 696/39/1
f 697/47/1 698/48/1 699/41/1 700/40/1
f 701/44/1 702/45/1 703/38/1 704/37/1
f 705/45/1 706/46/1 707/39/1 708/38/1
f 709/46/1 710/47/1 711/40/1 712/39/1
f 713/47/1 714/48/1 715/41/1 716/40/1
f 717/48/1 718/49/1 719/42/1 720/41/1

